<svg xmlns="http://www.w3.org/2000/svg" viewBox="0 0 40 40">
  <rect width="40" height="40" rx="10" fill="#1a2e1a"/>
  <ellipse cx="20" cy="25.5" rx="17" ry="13.5" fill="#2D5A1A"/>
  <circle cx="13" cy="12.5" r="8" fill="#2D5A1A"/>
  <circle cx="27" cy="12.5" r="8" fill="#2D5A1A"/>
  <ellipse cx="20" cy="25" rx="15.5" ry="12" fill="#66BB6A"/>
  <circle cx="13" cy="12" r="6.8" fill="#66BB6A"/>
  <circle cx="27" cy="12" r="6.8" fill="#66BB6A"/>
  <ellipse cx="20" cy="30" rx="8" ry="5.5" fill="#E8E5A0"/>
  <circle cx="7" cy="37" r="2.5" fill="#F59E0B"/>
  <circle cx="11" cy="36" r="2.5" fill="#F59E0B"/>
  <circle cx="15" cy="37" r="2.5" fill="#F59E0B"/>
  <circle cx="25" cy="37" r="2.5" fill="#F59E0B"/>
  <circle cx="29" cy="36" r="2.5" fill="#F59E0B"/>
  <circle cx="33" cy="37" r="2.5" fill="#F59E0B"/>
  <circle cx="13" cy="12" r="5.8" fill="#111"/>
  <circle cx="27" cy="12" r="5.8" fill="#111"/>
  <circle cx="15.5" cy="9.2" r="2" fill="white"/>
  <circle cx="29.5" cy="9.2" r="2" fill="white"/>
  <circle cx="7.5" cy="23" r="4" fill="rgba(255,150,155,0.85)"/>
  <circle cx="32.5" cy="23" r="4" fill="rgba(255,150,155,0.85)"/>
  <circle cx="18.5" cy="19.5" r="1.1" fill="rgba(0,0,0,0.2)"/>
  <circle cx="21.5" cy="19.5" r="1.1" fill="rgba(0,0,0,0.2)"/>
  <path d="M14,24 Q20,29 26,24" stroke="#2D5A1A" stroke-width="1.6" fill="none" stroke-linecap="round"/>
</svg>
